<svg width="36" height="36" viewBox="0 0 36 36" fill="none" xmlns="http://www.w3.org/2000/svg">
<circle cx="18" cy="18" r="18" fill="#1C1C1C"/>
<path fill-rule="evenodd" clip-rule="evenodd" d="M24.9998 29.25C26.6567 29.25 27.9998 27.9069 27.9998 26.25V19.0889C30.1336 18.3625 30.8177 15.3631 28.7996 13.8496L19.7996 7.09961L19.5955 6.95899C18.6212 6.34652 17.3785 6.34652 16.4041 6.95899L16.2 7.09961L7.20004 13.8496C5.182 15.3631 5.86603 18.3625 7.99984 19.0889V26.25C7.99984 27.9069 9.34299 29.25 10.9998 29.25H24.9998ZM10.9998 27.25C10.4476 27.25 9.99984 26.8023 9.99984 26.25V18.25C9.99984 17.6977 9.55213 17.25 8.99984 17.25C8.03883 17.25 7.63142 16.0268 8.40023 15.4502L17.4002 8.7002C17.7557 8.43369 18.244 8.43369 18.5995 8.7002L27.5995 15.4502L27.7303 15.5654C28.3154 16.175 27.9008 17.25 26.9998 17.25C26.4476 17.25 25.9998 17.6977 25.9998 18.25V26.25C25.9998 26.8023 25.5521 27.25 24.9998 27.25H20.9999V21.25C20.9999 20.1454 20.1045 19.25 18.9999 19.25H16.9999C15.8953 19.25 14.9999 20.1454 14.9999 21.25V27.25H10.9998Z" fill="#609EE6"/>
</svg>
