<svg width="36" height="36" viewBox="0 0 36 36" fill="none" xmlns="http://www.w3.org/2000/svg">
<circle cx="18" cy="18" r="18" fill="#1C1C1C"/>
<path d="M22 20C23.3261 20 24.5975 20.5272 25.5352 21.4648C26.4728 22.4025 27 23.6739 27 25V27C27 27.5523 26.5523 28 26 28C25.4477 28 25 27.5523 25 27V25C25 24.2044 24.6837 23.4415 24.1211 22.8789C23.6289 22.3867 22.9835 22.0829 22.2969 22.0146L22 22H14C13.2044 22 12.4415 22.3163 11.8789 22.8789C11.3163 23.4415 11 24.2044 11 25V27C11 27.5523 10.5523 28 10 28C9.44772 28 9 27.5523 9 27V25C9 23.6739 9.52716 22.4025 10.4648 21.4648C11.4025 20.5272 12.6739 20 14 20H22ZM18 8C20.7614 8 23 10.2386 23 13C23 15.7614 20.7614 18 18 18C15.2386 18 13 15.7614 13 13C13 10.2386 15.2386 8 18 8ZM18 10C16.3431 10 15 11.3431 15 13C15 14.6569 16.3431 16 18 16C19.6569 16 21 14.6569 21 13C21 11.3431 19.6569 10 18 10Z" fill="#609EE6"/>
</svg>
