<svg width="21" height="20" viewBox="0 0 21 20" fill="none" xmlns="http://www.w3.org/2000/svg">
<path fill-rule="evenodd" clip-rule="evenodd" d="M10.5 0.5C10.846 0.5 11.162 0.695308 11.3152 1.00381L13.913 6.23658L19.7224 7.08086C20.0647 7.13061 20.3489 7.36925 20.4557 7.69647C20.5624 8.02369 20.473 8.38276 20.2252 8.62278L16.0223 12.693L17.0142 18.4433C17.0727 18.7824 16.9324 19.1252 16.6525 19.3274C16.3725 19.5296 16.0013 19.5563 15.695 19.3961L10.5 16.6797L5.30497 19.3961C4.99868 19.5563 4.62751 19.5296 4.34753 19.3274C4.06755 19.1252 3.92733 18.7824 3.98583 18.4433L4.97772 12.6931L0.774814 8.62278C0.52698 8.38276 0.437641 8.02369 0.544348 7.69647C0.651055 7.36925 0.935309 7.13061 1.27764 7.08086L7.08704 6.23658L9.68481 1.00381C9.83797 0.695308 10.154 0.5 10.5 0.5Z" fill="#FEC50E" stroke="#FEC50E" stroke-linecap="round" stroke-linejoin="round"/>
</svg>
