<svg width="32" height="32" viewBox="0 0 32 32" fill="none" xmlns="http://www.w3.org/2000/svg">
<path id="Vector" d="M29.2826 4.50502H18.0201V2.25251C18.0201 1.65511 17.7827 1.08217 17.3603 0.659744C16.9379 0.237317 16.365 0 15.7676 0H2.25251C1.65511 0 1.08217 0.237317 0.659744 0.659744C0.237317 1.08217 0 1.65511 0 2.25251V24.7776C0 25.375 0.237317 25.9479 0.659744 26.3704C1.08217 26.7928 1.65511 27.0301 2.25251 27.0301H13.515V29.2826C13.515 29.88 13.7524 30.4529 14.1748 30.8754C14.5972 31.2978 15.1702 31.5351 15.7676 31.5351H29.2826C29.88 31.5351 30.4529 31.2978 30.8754 30.8754C31.2978 30.4529 31.5351 29.88 31.5351 29.2826V6.75752C31.5351 6.16012 31.2978 5.58719 30.8754 5.16476C30.4529 4.74233 29.88 4.50502 29.2826 4.50502ZM2.25251 14.6413H9.2015L6.29576 17.5583L7.88378 19.1463L13.515 13.515L7.88378 7.88378L6.29576 9.4718L9.2015 12.3888H2.25251V2.25251H15.7676V24.7776H2.25251V14.6413ZM15.7676 29.2826V27.0301C16.365 27.0301 16.9379 26.7928 17.3603 26.3704C17.7827 25.9479 18.0201 25.375 18.0201 24.7776V6.75752H29.2826V16.8938H22.3336L25.2394 13.9768L23.6513 12.3888L18.0201 18.0201L23.6513 23.6513L25.2394 22.0633L22.3336 19.1463H29.2826V29.2826H15.7676Z" fill="white" fill-opacity="0.92"/>
</svg>
