<svg width="23" height="22" viewBox="0 0 23 22" fill="none" xmlns="http://www.w3.org/2000/svg">
<path fill-rule="evenodd" clip-rule="evenodd" d="M10.5 2C10.846 2 11.162 2.19531 11.3152 2.50381L13.913 7.73658L19.7224 8.58086C20.0647 8.63061 20.3489 8.86925 20.4557 9.19647C20.5624 9.52369 20.473 9.88276 20.2252 10.1228L16.0223 14.193L17.0142 19.9433C17.0727 20.2824 16.9324 20.6252 16.6525 20.8274C16.3725 21.0296 16.0013 21.0563 15.695 20.8961L10.5 18.1797L5.30497 20.8961C4.99868 21.0563 4.62751 21.0296 4.34753 20.8274C4.06755 20.6252 3.92733 20.2824 3.98583 19.9433L4.97772 14.1931L0.774814 10.1228C0.52698 9.88276 0.437641 9.52369 0.544348 9.19647C0.651055 8.86925 0.935309 8.63061 1.27764 8.58086L7.08704 7.73658L9.68481 2.50381C9.83797 2.19531 10.154 2 10.5 2Z" fill="#FEC50E" stroke="#FEC50E" stroke-linecap="round" stroke-linejoin="round"/>
<circle cx="20" cy="2.5" r="2.5" fill="#FF3737"/>
</svg>
