<svg width="24" height="24" viewBox="0 0 24 24" fill="none" xmlns="http://www.w3.org/2000/svg">
<g id="Frame">
<path id="Vector" d="M20.9567 7.23163L20.9568 7.2317C21.0497 7.32457 21.1234 7.43482 21.1736 7.55616L21.6356 7.36479L21.1736 7.55616C21.2239 7.6775 21.2498 7.80755 21.2498 7.93889C21.2498 8.07024 21.2239 8.20029 21.1736 8.32162L21.6356 8.513L21.1736 8.32163C21.1234 8.44297 21.0497 8.55322 20.9568 8.64608L20.9568 8.64612L9.39645 20.2064L9.39505 20.2078C9.30293 20.3007 9.19328 20.3743 9.07247 20.4244C8.95165 20.4745 8.82208 20.5001 8.69129 20.4997H8.6897H4.50001C4.23479 20.4997 3.98044 20.3943 3.7929 20.2068C3.60536 20.0192 3.50001 19.7649 3.50001 19.4997L3.50001 15.31L3.50001 15.3084C3.49959 15.1776 3.52517 15.048 3.57527 14.9272C3.62537 14.8064 3.69899 14.6967 3.79184 14.6046L3.79326 14.6032L15.3536 3.04196L15.3536 3.04194C15.4465 2.94905 15.5567 2.87537 15.6781 2.82511L15.4872 2.36447L15.6781 2.8251C15.7994 2.77484 15.9294 2.74896 16.0608 2.74896C16.1921 2.74896 16.3222 2.77484 16.4435 2.8251C16.5649 2.87537 16.6751 2.94905 16.768 3.04194L20.9567 7.23163ZM8.6897 19.9997H8.8968L9.04325 19.8532L17.2932 11.6032L17.6468 11.2497L17.2932 10.8961L13.1036 6.70643L12.75 6.35288L12.3965 6.70643L4.14645 14.9564L4.00001 15.1029V15.31V19.4997V19.9997H4.50001H8.6897ZM17.6465 10.542L18 10.8955L18.3536 10.542L20.6036 8.29198L20.9572 7.93838L20.6035 7.58483L16.4138 3.39608L16.0603 3.04261L15.7068 3.39612L13.4568 5.64612L13.1032 5.99971L13.4568 6.35327L17.6465 10.542Z" fill="black" stroke="black"/>
</g>
</svg>
